<svg width="32" height="32" viewBox="0 0 32 32" fill="none" xmlns="http://www.w3.org/2000/svg">
<path d="M16 0C7.17474 0 0 7.17474 0 16C0 24.8253 7.17474 32 16 32C24.8253 32 32 24.8253 32 16C32 7.17474 24.8253 0 16 0ZM22.7368 17.6842H16C15.0737 17.6842 14.3158 16.9263 14.3158 16V7.57895C14.3158 6.65263 15.0737 5.89474 16 5.89474C16.9263 5.89474 17.6842 6.65263 17.6842 7.57895V14.3158H22.7368C23.6632 14.3158 24.4211 15.0737 24.4211 16C24.4211 16.9263 23.6632 17.6842 22.7368 17.6842Z" fill="white"/>
</svg>
