<svg width="32" height="26" viewBox="0 0 32 26" fill="none" xmlns="http://www.w3.org/2000/svg">
<path d="M24.4211 0H7.57895C3.40211 0 0 3.50133 0 7.8H32C32 3.50133 28.5979 0 24.4211 0ZM0 11.2667V18.2C0 22.4987 3.40211 26 7.57895 26H24.4211C28.5979 26 32 22.4987 32 18.2V11.2667H0ZM12.6316 19.9333H7.57895C6.65263 19.9333 5.89474 19.1533 5.89474 18.2C5.89474 17.2467 6.65263 16.4667 7.57895 16.4667H12.6316C13.5579 16.4667 14.3158 17.2467 14.3158 18.2C14.3158 19.1533 13.5579 19.9333 12.6316 19.9333Z" fill="white"/>
</svg>
