<svg width="129" height="35" viewBox="0 0 129 35" fill="none" xmlns="http://www.w3.org/2000/svg">
<path d="M84.2357 10.7514C84.9735 10.7514 85.6376 10.8051 86.2279 10.9124C86.8316 11.0197 87.3883 11.2075 87.8981 11.4758L87.4554 12.9247C86.959 12.6967 86.4694 12.529 85.9864 12.4217C85.5169 12.3143 85.0071 12.2607 84.457 12.2607C83.8667 12.2607 83.3033 12.3479 82.7666 12.5223C82.23 12.6967 81.7538 12.9851 81.3379 13.3876C80.9354 13.7766 80.6134 14.2931 80.3719 14.9371C80.1305 15.5676 80.0097 16.3525 80.0097 17.2916C80.0097 18.9149 80.3786 20.1491 81.1165 20.9943C81.8544 21.8395 82.8941 22.2621 84.2357 22.2621C84.7455 22.2621 85.1815 22.2352 85.5437 22.1816C85.9193 22.1279 86.2816 22.034 86.6304 21.8998V18.3782H84.2357V16.9293H88.361V23.0469C87.8244 23.2615 87.2274 23.4427 86.57 23.5902C85.9126 23.7244 85.1345 23.7915 84.2357 23.7915C83.3636 23.7915 82.5453 23.6506 81.7806 23.3689C81.0293 23.0871 80.3719 22.6713 79.8085 22.1212C79.245 21.5712 78.8023 20.8937 78.4803 20.0887C78.1583 19.2838 77.9974 18.3514 77.9974 17.2916C77.9974 16.2317 78.1516 15.2926 78.4602 14.4743C78.7822 13.6559 79.2182 12.9717 79.7682 12.4217C80.3183 11.8716 80.9756 11.4557 81.7403 11.174C82.505 10.8923 83.3368 10.7514 84.2357 10.7514ZM90.8596 23.6104V14.1523H92.1878L92.4896 16.0439C92.7177 15.4402 93.0933 14.9505 93.6165 14.5749C94.1397 14.1992 94.7435 14.0114 95.4277 14.0114C95.7765 14.0114 96.0649 14.0382 96.293 14.0919C96.521 14.1456 96.729 14.2127 96.9168 14.2931L96.5747 15.8427C96.4137 15.7622 96.2326 15.6951 96.0314 15.6414C95.8435 15.5878 95.6155 15.5609 95.3472 15.5609C94.9581 15.5609 94.5959 15.628 94.2605 15.7622C93.9385 15.8963 93.6501 16.0976 93.3952 16.3659C93.1537 16.6342 92.9592 16.9696 92.8116 17.372C92.6774 17.7611 92.6104 18.2105 92.6104 18.7203V23.6104H90.8596ZM106.55 18.7807C106.55 19.5722 106.429 20.2833 106.187 20.9138C105.946 21.5309 105.61 22.0541 105.181 22.4834C104.765 22.9127 104.276 23.2414 103.712 23.4695C103.149 23.6841 102.538 23.7915 101.881 23.7915C101.224 23.7915 100.613 23.6908 100.05 23.4896C99.4996 23.275 99.0166 22.9664 98.6007 22.5639C98.1983 22.148 97.8763 21.645 97.6348 21.0547C97.4067 20.451 97.2927 19.76 97.2927 18.9819C97.2927 18.1904 97.4134 17.4861 97.6549 16.869C97.8964 16.2518 98.2251 15.7353 98.641 15.3194C99.0703 14.8901 99.5667 14.5682 100.13 14.3535C100.694 14.1254 101.304 14.0114 101.961 14.0114C102.619 14.0114 103.222 14.112 103.772 14.3133C104.336 14.5145 104.819 14.8164 105.221 15.2188C105.637 15.6213 105.959 16.1244 106.187 16.7281C106.429 17.3184 106.55 18.0026 106.55 18.7807ZM104.698 18.8813C104.698 18.2508 104.618 17.7141 104.457 17.2714C104.296 16.8287 104.081 16.4665 103.813 16.1848C103.558 15.903 103.263 15.7018 102.927 15.5811C102.592 15.4469 102.25 15.3798 101.901 15.3798C101.552 15.3798 101.21 15.4335 100.875 15.5408C100.539 15.6481 100.244 15.836 99.9893 16.1043C99.7344 16.3726 99.5264 16.7348 99.3654 17.1909C99.2179 17.6337 99.1441 18.1971 99.1441 18.8813C99.1441 19.5119 99.2246 20.0552 99.3856 20.5113C99.5465 20.954 99.7545 21.3163 100.009 21.598C100.278 21.8797 100.58 22.0877 100.915 22.2218C101.25 22.356 101.592 22.4231 101.941 22.4231C102.29 22.4231 102.632 22.3694 102.968 22.2621C103.303 22.1413 103.598 21.9468 103.853 21.6785C104.108 21.3968 104.309 21.0345 104.457 20.5918C104.618 20.1357 104.698 19.5655 104.698 18.8813ZM115.043 14.1523H116.814V23.6104H115.426L115.184 22.4231H115.104C114.755 22.8121 114.319 23.1408 113.796 23.4091C113.286 23.664 112.689 23.7915 112.005 23.7915C111.025 23.7915 110.227 23.5164 109.61 22.9664C109.006 22.4029 108.704 21.5577 108.704 20.4308V14.1523H110.475V20.2095C110.475 20.6119 110.522 20.954 110.616 21.2358C110.724 21.5175 110.858 21.7456 111.019 21.92C111.193 22.081 111.394 22.2017 111.622 22.2822C111.85 22.3493 112.099 22.3828 112.367 22.3828C112.904 22.3828 113.387 22.2688 113.816 22.0407C114.245 21.8126 114.654 21.4974 115.043 21.0949V14.1523ZM123.476 23.7915C123.047 23.7915 122.631 23.7311 122.229 23.6104C121.84 23.4896 121.504 23.3286 121.223 23.1274V28.2388H119.472V14.0114H120.941L121.202 15.239C121.565 14.9036 121.974 14.6151 122.43 14.3736C122.886 14.1322 123.423 14.0114 124.04 14.0114C125.301 14.0114 126.294 14.4139 127.018 15.2188C127.743 16.0238 128.105 17.1775 128.105 18.6801C128.105 19.5655 127.971 20.3302 127.702 20.9742C127.447 21.6181 127.099 22.148 126.656 22.5639C126.227 22.9798 125.73 23.2884 125.167 23.4896C124.617 23.6908 124.053 23.7915 123.476 23.7915ZM123.658 15.4603C123.094 15.4603 122.604 15.6012 122.189 15.8829C121.773 16.1512 121.451 16.4262 121.223 16.708V21.759C121.531 21.9871 121.86 22.1547 122.209 22.2621C122.557 22.3694 122.906 22.4231 123.255 22.4231C123.617 22.4231 123.98 22.3627 124.342 22.2419C124.704 22.1078 125.026 21.8931 125.308 21.598C125.589 21.3029 125.817 20.9205 125.992 20.451C126.166 19.9814 126.253 19.4045 126.253 18.7203C126.253 17.7141 126.039 16.9226 125.61 16.3457C125.194 15.7555 124.543 15.4603 123.658 15.4603Z" fill="#304477"/>
<path d="M0 6.35547H9.69767V8.68184H2.95715V12.5363H9.0669V14.8411H2.95715V19.3009H9.77001V21.6286H0V6.35547Z" fill="#304477"/>
<path d="M18.6434 12.1978H15.468V17.9674C15.468 18.5182 15.6013 18.8926 15.8678 19.0944C16.1356 19.2975 16.4783 19.3978 16.8996 19.3978C17.222 19.3978 17.5609 19.366 17.9162 19.3013C18.2729 19.2366 18.5711 19.1465 18.8135 19.0335L19.2488 21.0705C18.9417 21.2 18.5254 21.3244 18 21.4462C17.4746 21.568 16.9136 21.629 16.3158 21.629C15.0073 21.629 14.0656 21.3612 13.4919 20.8281C12.917 20.2951 12.6302 19.4942 12.6302 18.4281V12.1978H10.8838V10.1126H12.6302V6.52466H15.4667V10.1126H18.6422V12.1978H18.6434Z" fill="#304477"/>
<path d="M23.0794 21.6291H20.2188V4.36719H23.0794V11.3006C23.5643 10.897 24.1176 10.562 24.7408 10.2954C25.3614 10.0277 26.0366 9.89439 26.7651 9.89439C27.4428 9.89439 28.0292 9.99592 28.5229 10.1977C29.0153 10.4008 29.4227 10.68 29.7464 11.0341C30.0687 11.3907 30.3073 11.8096 30.4609 12.2944C30.6157 12.7805 30.6919 13.3135 30.6919 13.8948V21.6291H27.8325V14.4532C27.8325 13.6283 27.6662 13.0343 27.3349 12.6713C27.0037 12.3071 26.5138 12.1256 25.8665 12.1256C25.3995 12.1256 24.9223 12.2398 24.4362 12.4657C23.9514 12.6916 23.4983 13.0076 23.0782 13.4112V21.6291H23.0794Z" fill="#304477"/>
<path d="M34.0122 7.47035C33.5122 7.47035 33.12 7.32567 32.837 7.03503C32.554 6.74439 32.4131 6.38014 32.4131 5.94355C32.4131 5.52473 32.5578 5.16429 32.8497 4.86476C33.1403 4.56524 33.5274 4.41675 34.0122 4.41675C34.4818 4.41675 34.8613 4.56016 35.1519 4.85207C35.4426 5.14271 35.5873 5.50696 35.5873 5.94228C35.5873 6.37887 35.4413 6.74312 35.1519 7.03376C34.8613 7.32567 34.4818 7.47035 34.0122 7.47035ZM32.5832 10.114H35.4438V21.6304H32.5832V10.114Z" fill="#304477"/>
<path d="M48.2932 15.7859C48.2932 16.7403 48.1434 17.597 47.8452 18.3573C47.5457 19.1162 47.1307 19.7546 46.5963 20.2724C46.0633 20.7902 45.4414 21.1862 44.7294 21.4604C44.0187 21.7358 43.2508 21.8728 42.4271 21.8728C41.6022 21.8728 40.8394 21.7434 40.135 21.4845C39.4319 21.2256 38.8227 20.8512 38.3049 20.3575C37.7883 19.865 37.3835 19.2533 37.0928 18.5261C36.8022 17.7988 36.6562 16.9675 36.6562 16.0296C36.6562 15.06 36.806 14.1906 37.1043 13.424C37.4038 12.6562 37.8201 12.014 38.3531 11.4974C38.8874 10.9783 39.5081 10.5824 40.2188 10.3082C40.9308 10.0341 41.6986 9.89575 42.5223 9.89575C43.3473 9.89575 44.1113 10.0214 44.8144 10.2714C45.5175 10.5214 46.1267 10.8984 46.6446 11.3984C47.1624 11.8998 47.566 12.5128 47.8566 13.2413C48.1473 13.9685 48.2932 14.8163 48.2932 15.7859ZM45.3361 15.9078C45.3361 15.2123 45.2536 14.6183 45.0924 14.1259C44.9312 13.6334 44.7167 13.2324 44.4502 12.9265C44.1837 12.6194 43.8765 12.3935 43.5288 12.2475C43.1797 12.1016 42.8206 12.0292 42.4487 12.0292C42.0768 12.0292 41.7215 12.0901 41.3813 12.212C41.0425 12.3325 40.7442 12.5432 40.4853 12.8427C40.2264 13.1423 40.017 13.5408 39.8545 14.0421C39.6934 14.5434 39.6134 15.1653 39.6134 15.909C39.6134 16.5868 39.6934 17.1655 39.8545 17.6427C40.017 18.1199 40.2302 18.5146 40.4967 18.8307C40.7645 19.1454 41.0704 19.3751 41.4194 19.5211C41.7672 19.667 42.1251 19.7394 42.4982 19.7394C42.8536 19.7394 43.2051 19.6747 43.5529 19.5465C43.8994 19.417 44.2027 19.2063 44.4616 18.9157C44.7205 18.6251 44.9299 18.2329 45.0911 17.7392C45.2536 17.2455 45.3361 16.635 45.3361 15.9078Z" fill="#304477"/>
<path d="M54.9355 21.8716C54.4659 21.8716 54.0179 21.8145 53.5902 21.7016C53.1612 21.5899 52.8008 21.435 52.5114 21.2408V27.2059H49.6748V10.0418H51.8806L52.2195 11.3985C52.6726 10.9606 53.1891 10.6027 53.7717 10.3197C54.3542 10.0367 55.0167 9.89453 55.7604 9.89453C57.2784 9.89453 58.479 10.3997 59.3598 11.4099C60.2406 12.4202 60.6823 13.8302 60.6823 15.6413C60.6823 16.6744 60.5236 17.5819 60.2089 18.356C59.8928 19.1315 59.4727 19.7826 58.9473 20.308C58.4219 20.8334 57.8114 21.2269 57.1172 21.4845C56.4217 21.7422 55.6944 21.8716 54.9355 21.8716ZM55.0332 12.1016C54.4507 12.1016 53.9417 12.2438 53.5051 12.5268C53.0685 12.8098 52.7373 13.0877 52.5114 13.3632V19.0845C52.7868 19.3117 53.1003 19.478 53.4569 19.582C53.811 19.6874 54.1841 19.7382 54.5712 19.7382C54.9583 19.7382 55.3391 19.6658 55.7109 19.5199C56.0828 19.3739 56.4179 19.1442 56.7174 18.8282C57.0169 18.5134 57.2593 18.1009 57.4446 17.592C57.6299 17.0843 57.7238 16.4574 57.7238 15.7136C57.7238 14.6475 57.5017 13.7782 57.0563 13.1068C56.612 12.4379 55.9369 12.1016 55.0332 12.1016Z" fill="#304477"/>
<path d="M72.6579 16.5145H64.8272V16.6109C64.8272 17.6618 65.1546 18.4449 65.8095 18.9627C66.4631 19.4805 67.3236 19.7382 68.391 19.7382C69.0218 19.7382 69.5827 19.6823 70.0752 19.5694C70.5689 19.4564 71.041 19.3028 71.4941 19.1087L72.0513 21.1203C71.5829 21.331 71.0258 21.5086 70.3785 21.6533C69.7325 21.798 68.9799 21.8716 68.1232 21.8716C67.2665 21.8716 66.4619 21.7587 65.7105 21.5315C64.9592 21.3043 64.3005 20.9489 63.7357 20.4641C63.1696 19.9793 62.7216 19.365 62.3891 18.6213C62.0579 17.8776 61.8916 16.9892 61.8916 15.9548C61.8916 15.0499 62.0287 14.2262 62.3041 13.4825C62.5782 12.7387 62.9666 12.1003 63.4679 11.5673C63.9692 11.0342 64.5733 10.6218 65.2866 10.3311C65.9961 10.0405 66.7804 9.89453 67.6384 9.89453C69.1741 9.89453 70.3937 10.3641 71.2986 11.3008C72.2048 12.2387 72.6554 13.5396 72.6554 15.2047V16.5145H72.6579ZM69.7249 14.5257C69.7249 14.1856 69.683 13.8594 69.603 13.5446C69.5218 13.2286 69.3936 12.9494 69.2147 12.7083C69.037 12.4659 68.8073 12.2755 68.5242 12.1384C68.2425 12.0013 67.9062 11.9328 67.5178 11.9328C66.7906 11.9328 66.1928 12.1752 65.7245 12.66C65.2549 13.1461 64.9719 13.7845 64.8754 14.5765L69.7249 14.5257Z" fill="#304477"/>
<path d="M72.6561 0H70.6775L69.2738 1.40369L65.7252 4.95227H64.3748L67.9234 1.40369L69.3246 0.00253833L69.3195 0H67.3409L62.3899 4.951H61.0395L62.4736 3.51685L64.5881 1.40369L65.9879 0.00253833L65.9854 0H64.0068L61.4811 2.52436L60.3592 1.40369L58.9568 0H49.315L42.959 6.35597H44.944L46.3476 4.95227L49.8962 1.40369H51.2466L47.698 4.95227L46.2956 6.35597H48.2806L49.6843 4.95227L52.4701 2.16773L53.2329 1.40496H54.5832L54.1378 1.85044L53.1466 2.84419L51.0334 4.951L49.6297 6.3547H51.6134L53.0171 4.951L54.1352 3.83414L55.2534 4.951L56.6571 6.3547H66.3052L72.6574 0.00126916L72.6561 0ZM60.4899 3.51685L59.8147 4.19204L56.7967 1.17398L57.4719 0.498781L58.3755 1.40369L60.4899 3.51685ZM58.1471 5.85972L57.2396 4.951L55.129 2.84039L55.8029 2.16519L58.821 5.18326L58.1471 5.85972Z" fill="#304477"/>
</svg>
