<svg width="129" height="35" viewBox="0 0 129 35" fill="none" xmlns="http://www.w3.org/2000/svg">
<path d="M84.2352 10.7524C84.973 10.7524 85.6371 10.806 86.2274 10.9134C86.8311 11.0207 87.3879 11.2085 87.8977 11.4768L87.4549 12.9257C86.9586 12.6977 86.4689 12.53 85.9859 12.4226C85.5164 12.3153 85.0066 12.2616 84.4565 12.2616C83.8662 12.2616 83.3028 12.3488 82.7662 12.5232C82.2295 12.6977 81.7533 12.9861 81.3374 13.3886C80.9349 13.7776 80.6129 14.2941 80.3714 14.9381C80.13 15.5686 80.0092 16.3534 80.0092 17.2925C80.0092 18.9158 80.3782 20.1501 81.116 20.9953C81.8539 21.8405 82.8936 22.263 84.2352 22.263C84.745 22.263 85.181 22.2362 85.5432 22.1826C85.9188 22.1289 86.2811 22.035 86.6299 21.9008V18.3792H84.2352V16.9303H88.3605V23.0479C87.8239 23.2625 87.2269 23.4436 86.5695 23.5912C85.9121 23.7254 85.134 23.7924 84.2352 23.7924C83.3632 23.7924 82.5448 23.6516 81.7801 23.3698C81.0288 23.0881 80.3714 22.6722 79.808 22.1222C79.2445 21.5721 78.8018 20.8946 78.4798 20.0897C78.1579 19.2848 77.9969 18.3524 77.9969 17.2925C77.9969 16.2327 78.1511 15.2936 78.4597 14.4752C78.7817 13.6569 79.2177 12.9727 79.7677 12.4226C80.3178 11.8726 80.9752 11.4567 81.7398 11.175C82.5045 10.8932 83.3363 10.7524 84.2352 10.7524ZM90.8591 23.6113V14.1533H92.1873L92.4891 16.0449C92.7172 15.4412 93.0928 14.9515 93.616 14.5759C94.1393 14.2002 94.743 14.0124 95.4272 14.0124C95.776 14.0124 96.0644 14.0392 96.2925 14.0929C96.5205 14.1465 96.7285 14.2136 96.9163 14.2941L96.5742 15.8436C96.4132 15.7631 96.2321 15.6961 96.0309 15.6424C95.8431 15.5887 95.615 15.5619 95.3467 15.5619C94.9576 15.5619 94.5954 15.629 94.26 15.7631C93.938 15.8973 93.6496 16.0985 93.3947 16.3668C93.1532 16.6352 92.9587 16.9706 92.8111 17.373C92.6769 17.7621 92.6099 18.2115 92.6099 18.7213V23.6113H90.8591ZM106.549 18.7817C106.549 19.5732 106.428 20.2842 106.187 20.9148C105.945 21.5319 105.61 22.0551 105.181 22.4844C104.765 22.9137 104.275 23.2424 103.712 23.4705C103.148 23.6851 102.538 23.7924 101.88 23.7924C101.223 23.7924 100.613 23.6918 100.049 23.4906C99.4991 23.2759 99.0161 22.9674 98.6002 22.5649C98.1978 22.149 97.8758 21.6459 97.6343 21.0556C97.4062 20.4519 97.2922 19.761 97.2922 18.9829C97.2922 18.1914 97.413 17.4871 97.6544 16.8699C97.8959 16.2528 98.2246 15.7363 98.6405 15.3204C99.0698 14.8911 99.5662 14.5691 100.13 14.3545C100.693 14.1264 101.304 14.0124 101.961 14.0124C102.618 14.0124 103.222 14.113 103.772 14.3142C104.335 14.5155 104.818 14.8173 105.221 15.2198C105.637 15.6223 105.959 16.1254 106.187 16.7291C106.428 17.3194 106.549 18.0036 106.549 18.7817ZM104.698 18.8823C104.698 18.2518 104.617 17.7151 104.456 17.2724C104.295 16.8297 104.081 16.4675 103.812 16.1857C103.557 15.904 103.262 15.7028 102.927 15.582C102.591 15.4479 102.249 15.3808 101.901 15.3808C101.552 15.3808 101.21 15.4345 100.874 15.5418C100.539 15.6491 100.244 15.8369 99.9888 16.1052C99.7339 16.3736 99.5259 16.7358 99.3649 17.1919C99.2174 17.6346 99.1436 18.1981 99.1436 18.8823C99.1436 19.5128 99.2241 20.0562 99.3851 20.5123C99.5461 20.955 99.754 21.3172 100.009 21.599C100.277 21.8807 100.579 22.0886 100.914 22.2228C101.25 22.357 101.592 22.424 101.941 22.424C102.29 22.424 102.632 22.3704 102.967 22.263C103.302 22.1423 103.598 21.9478 103.852 21.6795C104.107 21.3977 104.309 21.0355 104.456 20.5928C104.617 20.1367 104.698 19.5665 104.698 18.8823ZM115.043 14.1533H116.814V23.6113H115.425L115.184 22.424H115.103C114.754 22.8131 114.318 23.1418 113.795 23.4101C113.285 23.665 112.688 23.7924 112.004 23.7924C111.025 23.7924 110.227 23.5174 109.61 22.9674C109.006 22.4039 108.704 21.5587 108.704 20.4318V14.1533H110.475V20.2104C110.475 20.6129 110.522 20.955 110.616 21.2367C110.723 21.5185 110.857 21.7465 111.018 21.9209C111.193 22.0819 111.394 22.2027 111.622 22.2832C111.85 22.3503 112.098 22.3838 112.366 22.3838C112.903 22.3838 113.386 22.2698 113.815 22.0417C114.245 21.8136 114.654 21.4984 115.043 21.0959V14.1533ZM123.476 23.7924C123.047 23.7924 122.631 23.7321 122.228 23.6113C121.839 23.4906 121.504 23.3296 121.222 23.1284V28.2397H119.471V14.0124H120.94L121.202 15.2399C121.564 14.9045 121.973 14.6161 122.43 14.3746C122.886 14.1331 123.422 14.0124 124.039 14.0124C125.3 14.0124 126.293 14.4149 127.018 15.2198C127.742 16.0247 128.104 17.1785 128.104 18.6811C128.104 19.5665 127.97 20.3312 127.702 20.9751C127.447 21.6191 127.098 22.149 126.655 22.5649C126.226 22.9808 125.73 23.2894 125.166 23.4906C124.616 23.6918 124.053 23.7924 123.476 23.7924ZM123.657 15.4613C123.094 15.4613 122.604 15.6022 122.188 15.8839C121.772 16.1522 121.45 16.4272 121.222 16.7089V21.76C121.531 21.988 121.859 22.1557 122.208 22.263C122.557 22.3704 122.906 22.424 123.255 22.424C123.617 22.424 123.979 22.3637 124.341 22.2429C124.703 22.1088 125.025 21.8941 125.307 21.599C125.589 21.3038 125.817 20.9215 125.991 20.4519C126.166 19.9824 126.253 19.4055 126.253 18.7213C126.253 17.7151 126.038 16.9236 125.609 16.3467C125.193 15.7564 124.542 15.4613 123.657 15.4613Z" fill="white"/>
<path d="M0 6.35547H9.69767V8.68184H2.95715V12.5363H9.0669V14.8411H2.95715V19.3009H9.77001V21.6286H0V6.35547Z" fill="white"/>
<path d="M18.6439 12.1985H15.4685V17.9682C15.4685 18.519 15.6018 18.8934 15.8683 19.0952C16.1361 19.2982 16.4787 19.3985 16.9001 19.3985C17.2225 19.3985 17.5613 19.3668 17.9167 19.3021C18.2733 19.2373 18.5716 19.1472 18.814 19.0343L19.2493 21.0713C18.9422 21.2007 18.5259 21.3251 18.0005 21.4469C17.475 21.5688 16.9141 21.6297 16.3163 21.6297C15.0078 21.6297 14.0661 21.3619 13.4924 20.8289C12.9175 20.2958 12.6306 19.495 12.6306 18.4289V12.1985H10.8843V10.1133H12.6306V6.52539H15.4672V10.1133H18.6427V12.1985H18.6439Z" fill="white"/>
<path d="M23.0797 21.6291H20.219V4.36719H23.0797V11.3006C23.5645 10.897 24.1179 10.562 24.741 10.2954C25.3616 10.0277 26.0368 9.89439 26.7653 9.89439C27.4431 9.89439 28.0294 9.99592 28.5231 10.1977C29.0156 10.4008 29.423 10.68 29.7466 11.0341C30.069 11.3907 30.3076 11.8096 30.4611 12.2944C30.616 12.7805 30.6921 13.3135 30.6921 13.8948V21.6291H27.8327V14.4532C27.8327 13.6283 27.6664 13.0343 27.3352 12.6713C27.0039 12.3071 26.514 12.1256 25.8668 12.1256C25.3997 12.1256 24.9225 12.2398 24.4364 12.4657C23.9516 12.6916 23.4985 13.0076 23.0784 13.4112V21.6291H23.0797Z" fill="white"/>
<path d="M34.0122 7.46962C33.5122 7.46962 33.12 7.32494 32.837 7.0343C32.554 6.74366 32.4131 6.37941 32.4131 5.94282C32.4131 5.524 32.5578 5.16355 32.8497 4.86403C33.1403 4.56451 33.5274 4.41602 34.0122 4.41602C34.4818 4.41602 34.8613 4.55943 35.1519 4.85134C35.4426 5.14198 35.5873 5.50623 35.5873 5.94155C35.5873 6.37814 35.4413 6.74239 35.1519 7.03303C34.8613 7.32494 34.4818 7.46962 34.0122 7.46962ZM32.5832 10.1133H35.4438V21.6297H32.5832V10.1133Z" fill="white"/>
<path d="M48.2927 15.7867C48.2927 16.7411 48.143 17.5978 47.8447 18.358C47.5452 19.117 47.1302 19.7553 46.5958 20.2732C46.0628 20.791 45.4409 21.187 44.7289 21.4611C44.0182 21.7365 43.2503 21.8736 42.4266 21.8736C41.6017 21.8736 40.8389 21.7441 40.1345 21.4852C39.4314 21.2263 38.8222 20.8519 38.3044 20.3582C37.7879 19.8658 37.383 19.254 37.0924 18.5268C36.8017 17.7996 36.6558 16.9683 36.6558 16.0303C36.6558 15.0607 36.8055 14.1913 37.1038 13.4248C37.4033 12.6569 37.8196 12.0147 38.3526 11.4982C38.8869 10.9791 39.5076 10.5831 40.2183 10.309C40.9303 10.0348 41.6981 9.89648 42.5218 9.89648C43.3468 9.89648 44.1108 10.0221 44.8139 10.2722C45.5171 10.5222 46.1263 10.8991 46.6441 11.3992C47.1619 11.9005 47.5655 12.5135 47.8561 13.242C48.1468 13.9692 48.2927 14.817 48.2927 15.7867ZM45.3356 15.9085C45.3356 15.213 45.2531 14.619 45.0919 14.1266C44.9307 13.6342 44.7162 13.2331 44.4497 12.9272C44.1832 12.6201 43.876 12.3942 43.5283 12.2482C43.1793 12.1023 42.8201 12.0299 42.4482 12.0299C42.0764 12.0299 41.721 12.0909 41.3809 12.2127C41.042 12.3333 40.7437 12.544 40.4848 12.8435C40.2259 13.143 40.0165 13.5415 39.854 14.0428C39.6929 14.5442 39.6129 15.166 39.6129 15.9098C39.6129 16.5875 39.6929 17.1662 39.854 17.6435C40.0165 18.1207 40.2297 18.5154 40.4962 18.8314C40.764 19.1461 41.0699 19.3759 41.4189 19.5218C41.7667 19.6678 42.1246 19.7401 42.4977 19.7401C42.8531 19.7401 43.2046 19.6754 43.5524 19.5472C43.8989 19.4177 44.2022 19.2071 44.4611 18.9164C44.72 18.6258 44.9294 18.2336 45.0906 17.7399C45.2531 17.2462 45.3356 16.6357 45.3356 15.9085Z" fill="white"/>
<path d="M54.9357 21.8716C54.4661 21.8716 54.0181 21.8145 53.5904 21.7016C53.1614 21.5899 52.801 21.435 52.5116 21.2408V27.2059H49.675V10.0418H51.8809L52.2197 11.3985C52.6728 10.9606 53.1894 10.6027 53.7719 10.3197C54.3545 10.0367 55.017 9.89453 55.7607 9.89453C57.2786 9.89453 58.4792 10.3997 59.36 11.4099C60.2408 12.4202 60.6825 13.8302 60.6825 15.6413C60.6825 16.6744 60.5239 17.5819 60.2091 18.356C59.8931 19.1315 59.473 19.7826 58.9476 20.308C58.4221 20.8334 57.8117 21.2269 57.1174 21.4845C56.4219 21.7422 55.6947 21.8716 54.9357 21.8716ZM55.0335 12.1016C54.4509 12.1016 53.942 12.2438 53.5054 12.5268C53.0688 12.8098 52.7375 13.0877 52.5116 13.3632V19.0845C52.787 19.3117 53.1005 19.478 53.4572 19.582C53.8113 19.6874 54.1844 19.7382 54.5715 19.7382C54.9586 19.7382 55.3393 19.6658 55.7112 19.5199C56.0831 19.3739 56.4181 19.1442 56.7176 18.8282C57.0172 18.5134 57.2596 18.1009 57.4449 17.592C57.6302 17.0843 57.7241 16.4574 57.7241 15.7136C57.7241 14.6475 57.502 13.7782 57.0565 13.1068C56.6123 12.4379 55.9371 12.1016 55.0335 12.1016Z" fill="white"/>
<path d="M72.6584 16.5145H64.8277V16.6109C64.8277 17.6618 65.1551 18.4449 65.81 18.9627C66.4636 19.4805 67.3241 19.7382 68.3915 19.7382C69.0222 19.7382 69.5832 19.6823 70.0757 19.5694C70.5694 19.4564 71.0415 19.3028 71.4946 19.1087L72.0517 21.1203C71.5834 21.331 71.0263 21.5086 70.379 21.6533C69.733 21.798 68.9804 21.8716 68.1237 21.8716C67.267 21.8716 66.4623 21.7587 65.711 21.5315C64.9597 21.3043 64.301 20.9489 63.7362 20.4641C63.1701 19.9793 62.7221 19.365 62.3896 18.6213C62.0583 17.8776 61.8921 16.9892 61.8921 15.9548C61.8921 15.0499 62.0292 14.2262 62.3046 13.4825C62.5787 12.7387 62.9671 12.1003 63.4684 11.5673C63.9697 11.0342 64.5738 10.6218 65.2871 10.3311C65.9966 10.0405 66.7809 9.89453 67.6389 9.89453C69.1745 9.89453 70.3942 10.3641 71.2991 11.3008C72.2053 12.2387 72.6559 13.5396 72.6559 15.2047V16.5145H72.6584ZM69.7254 14.5257C69.7254 14.1856 69.6835 13.8594 69.6035 13.5446C69.5223 13.2286 69.3941 12.9494 69.2152 12.7083C69.0375 12.4659 68.8078 12.2755 68.5247 12.1384C68.243 12.0013 67.9067 11.9328 67.5183 11.9328C66.7911 11.9328 66.1933 12.1752 65.725 12.66C65.2554 13.1461 64.9723 13.7845 64.8759 14.5765L69.7254 14.5257Z" fill="white"/>
<path d="M72.6559 0H70.6773L69.2736 1.40369L65.725 4.95227H64.3746L67.9232 1.40369L69.3243 0.00253833L69.3193 0H67.3406L62.3896 4.951H61.0392L62.4734 3.51685L64.5878 1.40369L65.9877 0.00253833L65.9852 0H64.0065L61.4809 2.52436L60.359 1.40369L58.9565 0H49.3147L42.9587 6.35597H44.9437L46.3474 4.95227L49.896 1.40369H51.2464L47.6978 4.95227L46.2954 6.35597H48.2803L49.684 4.95227L52.4698 2.16773L53.2326 1.40496H54.583L54.1375 1.85044L53.1463 2.84419L51.0332 4.951L49.6295 6.3547H51.6132L53.0169 4.951L54.135 3.83414L55.2531 4.951L56.6568 6.3547H66.305L72.6571 0.00126916L72.6559 0ZM60.4897 3.51685L59.8145 4.19204L56.7964 1.17398L57.4716 0.498781L58.3753 1.40369L60.4897 3.51685ZM58.1468 5.85972L57.2394 4.951L55.1287 2.84039L55.8027 2.16519L58.8207 5.18326L58.1468 5.85972Z" fill="white"/>
</svg>
