<svg width="32" height="32" viewBox="0 0 32 32" fill="none" xmlns="http://www.w3.org/2000/svg">
<path d="M29.328 12.448H29.28C28.8985 12.4457 28.5263 12.3306 28.2102 12.117C27.8942 11.9034 27.6484 11.6011 27.504 11.248C27.504 11.2438 27.5023 11.2397 27.4993 11.2367C27.4963 11.2337 27.4922 11.232 27.488 11.232C27.3457 10.8801 27.3092 10.4942 27.3831 10.1219C27.457 9.74954 27.6381 9.40688 27.904 9.136L27.952 9.088C28.4515 8.5866 28.7319 7.90772 28.7319 7.2C28.7319 6.49228 28.4515 5.8134 27.952 5.312L26.688 4.064C26.1866 3.56453 25.5077 3.2841 24.8 3.2841C24.0923 3.2841 23.4134 3.56453 22.912 4.064L22.896 4.096C22.6189 4.3629 22.2699 4.54296 21.8918 4.61403C21.5137 4.6851 21.1231 4.64407 20.768 4.496C20.4101 4.35682 20.1025 4.11281 19.8855 3.79593C19.6686 3.47905 19.5523 3.10404 19.552 2.72V2.672C19.5533 2.3221 19.4855 1.97538 19.3527 1.65167C19.2199 1.32796 19.0245 1.03361 18.7779 0.785453C18.5312 0.537292 18.238 0.34019 17.9151 0.205415C17.5922 0.070641 17.2459 0.000838834 16.896 0H15.104C14.7541 0.000838834 14.4078 0.070641 14.0849 0.205415C13.762 0.34019 13.4688 0.537292 13.2221 0.785453C12.9755 1.03361 12.7801 1.32796 12.6473 1.65167C12.5145 1.97538 12.4467 2.3221 12.448 2.672V2.72C12.4472 3.10179 12.3326 3.47469 12.1189 3.79104C11.9051 4.10739 11.6019 4.35283 11.248 4.496C11.0065 4.60397 10.7445 4.65854 10.48 4.656C10.2276 4.65662 9.97761 4.60748 9.74425 4.51139C9.51089 4.4153 9.29876 4.27414 9.12 4.096L9.088 4.064C8.5866 3.56453 7.90772 3.2841 7.2 3.2841C6.49228 3.2841 5.8134 3.56453 5.312 4.064L4.048 5.312C3.54853 5.8134 3.2681 6.49228 3.2681 7.2C3.2681 7.90772 3.54853 8.5866 4.048 9.088L4.096 9.136C4.36416 9.40887 4.546 9.7547 4.61881 10.1303C4.69161 10.5059 4.65216 10.8946 4.50537 11.2479C4.35859 11.6012 4.11098 11.9035 3.79346 12.1169C3.47594 12.3303 3.10258 12.4455 2.72 12.448H2.672C1.96373 12.4493 1.28483 12.7312 0.784012 13.232C0.28319 13.7328 0.00126892 14.4117 0 15.12V16.896C0.00126892 17.6043 0.28319 18.2832 0.784012 18.784C1.28483 19.2848 1.96373 19.5667 2.672 19.568H2.72C3.10268 19.5648 3.47732 19.6778 3.79441 19.8921C4.11151 20.1064 4.35614 20.4118 4.496 20.768C4.64103 21.1236 4.68043 21.5135 4.60948 21.8909C4.53853 22.2684 4.36025 22.6173 4.096 22.896L4.064 22.912C3.56432 23.4165 3.28401 24.0979 3.28401 24.808C3.28401 25.5181 3.56432 26.1995 4.064 26.704L5.312 27.952C5.8134 28.4515 6.49228 28.7319 7.2 28.7319C7.90772 28.7319 8.5866 28.4515 9.088 27.952L9.12 27.92C9.38718 27.6482 9.73003 27.4631 10.1039 27.3889C10.4777 27.3147 10.8653 27.3548 11.216 27.504C11.5767 27.6457 11.8867 27.8921 12.1063 28.2114C12.3258 28.5308 12.4448 28.9085 12.448 29.296V29.344C12.4472 29.693 12.5153 30.0388 12.6485 30.3614C12.7816 30.684 12.9772 30.9771 13.224 31.224C13.4708 31.4708 13.764 31.6664 14.0866 31.7995C14.4092 31.9327 14.755 32.0008 15.104 32H16.896C17.245 32.0008 17.5908 31.9327 17.9134 31.7995C18.236 31.6664 18.5292 31.4708 18.776 31.224C19.0228 30.9771 19.2184 30.684 19.3515 30.3614C19.4847 30.0388 19.5528 29.693 19.552 29.344V29.296C19.5552 28.9085 19.6742 28.5308 19.8937 28.2114C20.1133 27.8921 20.4233 27.6457 20.784 27.504C21.1347 27.3548 21.5223 27.3147 21.8961 27.3889C22.27 27.4631 22.6128 27.6482 22.88 27.92L22.912 27.952C23.4134 28.4515 24.0923 28.7319 24.8 28.7319C25.5077 28.7319 26.1866 28.4515 26.688 27.952L27.936 26.704C28.4357 26.1995 28.716 25.5181 28.716 24.808C28.716 24.0979 28.4357 23.4165 27.936 22.912L27.904 22.896C27.6397 22.6173 27.4615 22.2684 27.3905 21.8909C27.3196 21.5135 27.359 21.1236 27.504 20.768C27.6439 20.4118 27.8885 20.1064 28.2056 19.8921C28.5227 19.6778 28.8973 19.5648 29.28 19.568H29.328C30.0363 19.5667 30.7152 19.2848 31.216 18.784C31.7168 18.2832 31.9987 17.6043 32 16.896V15.12C31.9987 14.4117 31.7168 13.7328 31.216 13.232C30.7152 12.7312 30.0363 12.4493 29.328 12.448ZM16 21.6C14.8924 21.6 13.8097 21.2716 12.8888 20.6562C11.9679 20.0409 11.2501 19.1663 10.8263 18.143C10.4024 17.1198 10.2915 15.9938 10.5076 14.9075C10.7237 13.8212 11.257 12.8234 12.0402 12.0402C12.8234 11.257 13.8212 10.7237 14.9075 10.5076C15.9938 10.2915 17.1198 10.4024 18.143 10.8263C19.1663 11.2501 20.0409 11.9679 20.6562 12.8888C21.2716 13.8097 21.6 14.8924 21.6 16C21.6 17.4852 21.01 18.9096 19.9598 19.9598C18.9096 21.01 17.4852 21.6 16 21.6Z" fill="white"/>
</svg>
